HIERARCHY
ROOT SpineBase
{
  OFFSET 0.000000 0.000000 0.000000
  CHANNELS 6 Xposition Yposition Zposition Zrotation Xrotation Yrotation
  JOINT SpineMid
  {
    OFFSET 0.000000 31.446682 0.000000
    CHANNELS 3 Zrotation Xrotation Yrotation
    JOINT SpineShoulder
    {
      OFFSET -0.015199 23.186540 -0.888321
      CHANNELS 3 Zrotation Xrotation Yrotation
      JOINT Neck
      {
        OFFSET -0.002205 7.645280 -0.517510
        CHANNELS 3 Zrotation Xrotation Yrotation
        JOINT Head
        {
          OFFSET 9.331684 9.090399 2.605963
          CHANNELS 3 Zrotation Xrotation Yrotation
          End Site
          {
            OFFSET 0 0 0
          }
        }
      }
      JOINT ShoulderLeft
      {
        OFFSET -7.042533 -3.115896 -12.700555
        CHANNELS 3 Zrotation Xrotation Yrotation
        JOINT ElbowLeft
        {
          OFFSET -0.144061 -26.226176 -6.754648
          CHANNELS 3 Zrotation Xrotation Yrotation
          JOINT WristLeft
          {
            OFFSET 6.570166 -25.029258 -2.284903
            CHANNELS 3 Zrotation Xrotation Yrotation
            JOINT HandLeft
            {
              OFFSET 0.689391 -7.465405 1.728734
              CHANNELS 3 Zrotation Xrotation Yrotation
              JOINT HandTipLeft
              {
                OFFSET 3.808767 -6.507811 0.183749
                CHANNELS 3 Zrotation Xrotation Yrotation
                End Site
                {
                  OFFSET 0 0 0
                }
              }
              JOINT ThumbLeft
              {
                OFFSET -4.138860 -0.862070 2.872494
                CHANNELS 3 Zrotation Xrotation Yrotation
                End Site
                {
                  OFFSET 0 0 0
                }
              }
            }
          }
        }
      }
      JOINT ShoulderRight
      {
        OFFSET 8.606655 -7.137114 12.580763
        CHANNELS 3 Zrotation Xrotation Yrotation
        JOINT ElbowRight
        {
          OFFSET 1.962590 -25.200346 6.677527
          CHANNELS 3 Zrotation Xrotation Yrotation
          JOINT WristRight
          {
            OFFSET -0.703889 -25.692735 5.638289
            CHANNELS 3 Zrotation Xrotation Yrotation
            JOINT HandRight
            {
              OFFSET 4.148341 -3.505737 -3.016640
              CHANNELS 3 Zrotation Xrotation Yrotation
              JOINT HandTipRight
              {
                OFFSET 0.419985 -0.309651 -0.614473
                CHANNELS 3 Zrotation Xrotation Yrotation
                End Site
                {
                  OFFSET 0 0 0
                }
              }
              JOINT ThumbRight
              {
                OFFSET 0.696253 0.477121 -1.341966
                CHANNELS 3 Zrotation Xrotation Yrotation
                End Site
                {
                  OFFSET 0 0 0
                }
              }
            }
          }
        }
      }
    }
  }
  JOINT HipLeft
  {
    OFFSET -3.651984 2.068126 -6.826945
    CHANNELS 3 Zrotation Xrotation Yrotation
    JOINT KneeLeft
    {
      OFFSET 0.796076 -37.531189 -4.801770
      CHANNELS 3 Zrotation Xrotation Yrotation
      JOINT AnkleLeft
      {
        OFFSET -2.697002 -41.543733 4.431398
        CHANNELS 3 Zrotation Xrotation Yrotation
        JOINT FootLeft
        {
          OFFSET 4.130828 -5.991913 -1.470282
          CHANNELS 3 Zrotation Xrotation Yrotation
          End Site
          {
            OFFSET 0 0 0
          }
        }
      }
    }
  }
  JOINT HipRight
  {
    OFFSET 3.104833 0.139964 0.115613
    CHANNELS 3 Zrotation Xrotation Yrotation
    JOINT KneeRight
    {
      OFFSET -9.884536 -36.977401 -7.407191
      CHANNELS 3 Zrotation Xrotation Yrotation
      JOINT AnkleRight
      {
        OFFSET 6.437341 -31.431970 -9.507571
        CHANNELS 3 Zrotation Xrotation Yrotation
        JOINT FootRight
        {
          OFFSET 5.777981 -5.104269 -4.229182
          CHANNELS 3 Zrotation Xrotation Yrotation
          End Site
          {
            OFFSET 0 0 0
          }
        }
      }
    }
  }
}
MOTION
Frames: 6
Frame Time: 0.033333
28.931745 83.917596 316.133884 -0.000000 0.000000 -45.776792 -0.000000 0.000000 45.776792 -0.000000 0.000000 0.000000 -0.000000 0.000000 0.000000 0.000000 0.000000 0.000000 -0.000000 0.000000 0.000000 -0.000000 0.000000 0.000000 -0.000000 0.000000 0.000000 -0.000000 0.000000 0.000000 0.000000 0.000000 0.000000 0.000000 0.000000 0.000000 -0.000000 0.000000 0.000000 -0.000000 0.000000 0.000000 -0.000000 0.000000 0.000000 -0.000000 0.000000 0.000000 0.000000 0.000000 0.000000 0.000000 0.000000 0.000000 -0.000000 0.000000 45.776792 -0.000000 0.000000 0.000000 -0.000000 0.000000 0.000000 0.000000 0.000000 0.000000 -0.000000 0.000000 45.776792 -0.000000 0.000000 0.000000 -0.000000 0.000000 0.000000 0.000000 0.000000 0.000000
29.224270 83.787636 316.041694 0.373288 0.029539 -43.783148 -0.249064 -0.279614 43.782444 -0.000000 0.000000 0.000000 -0.000000 0.000000 0.000000 0.000000 0.000000 0.000000 -0.000000 0.000000 0.000000 -0.000000 0.000000 0.000000 -1.221743 2.647943 -0.010185 -2.295037 -2.082138 0.156891 0.000000 0.000000 0.000000 0.000000 0.000000 0.000000 -0.000000 0.000000 0.000000 -0.000000 0.000000 0.000000 -0.000000 0.000000 0.000000 -0.000000 0.000000 0.000000 0.000000 0.000000 0.000000 0.000000 0.000000 0.000000 -0.249064 -0.279614 43.782444 -0.000000 0.000000 0.000000 -5.827607 -5.132878 -2.485389 0.000000 0.000000 0.000000 1.395331 0.102366 43.724374 -4.521217 -2.658028 0.235851 -4.157853 -3.281170 -2.268777 0.000000 0.000000 0.000000
29.497875 83.716187 315.983931 0.700950 0.033474 -42.074319 -0.497882 -0.494542 42.071965 -0.000000 0.000000 0.000000 -0.000000 0.000000 0.000000 0.000000 0.000000 0.000000 -0.000000 0.000000 0.000000 -0.000000 0.000000 0.000000 -2.275275 4.854089 0.018235 -4.435030 -3.642714 0.207913 0.000000 0.000000 0.000000 0.000000 0.000000 0.000000 -0.000000 0.000000 0.000000 -0.000000 0.000000 0.000000 -0.000000 0.000000 0.000000 -0.000000 0.000000 0.000000 0.000000 0.000000 0.000000 0.000000 0.000000 0.000000 -1.313391 -0.493380 42.153851 0.603757 -0.548176 -0.086028 -10.101935 -8.482866 -4.476855 0.000000 0.000000 0.000000 2.136483 -0.034760 42.010866 -7.916404 -5.316412 0.249819 -7.223572 -5.006519 -3.925300 0.000000 0.000000 0.000000
29.752559 83.703249 315.960595 0.984563 0.011968 -40.714029 -0.738500 -0.651268 40.709728 -0.000000 0.000000 0.000000 -0.000000 0.000000 0.000000 0.000000 0.000000 0.000000 -0.000000 0.000000 0.000000 -0.927798 0.123199 0.118277 -2.214300 6.489149 -0.060696 -6.280789 -4.682006 0.254879 0.000000 0.000000 0.000000 0.000000 0.000000 0.000000 -0.000000 0.000000 0.000000 -0.000000 0.000000 0.000000 -0.000000 0.000000 0.000000 -0.000000 0.000000 0.000000 0.000000 0.000000 0.000000 0.000000 0.000000 0.000000 -1.887309 -0.630177 40.822685 0.855470 -0.766980 -0.120078 -12.599312 -10.180361 -5.604595 0.000000 0.000000 0.000000 2.292574 -0.321675 40.693705 -10.148127 -7.762854 0.050308 -8.287016 -4.791953 -4.511033 0.000000 0.000000 0.000000
29.988322 83.748822 315.971687 1.225349 -0.035022 -39.755842 -0.964469 -0.756676 39.749848 -0.000000 0.000000 0.000000 -0.000000 0.000000 0.000000 0.000000 0.000000 0.000000 0.761676 -0.535769 -0.189906 -1.939504 0.787677 0.386184 -2.661023 7.658084 -0.085981 -7.709477 -5.221337 0.388865 0.000000 0.000000 0.000000 0.000000 0.000000 0.000000 -0.000000 0.000000 0.000000 -0.000000 0.000000 0.000000 -0.000000 0.000000 0.000000 -0.000000 0.000000 0.000000 0.000000 0.000000 0.000000 0.000000 0.000000 0.000000 -2.395113 -0.717440 39.888881 1.072412 -0.947617 -0.148568 -13.254976 -10.379256 -5.696331 0.000000 0.000000 0.000000 1.892735 -0.711212 39.820216 -11.178427 -9.865217 -0.323630 -7.005145 -2.569583 -3.953857 0.000000 0.000000 0.000000
30.205165 83.852907 316.017206 1.424189 -0.107748 -39.239856 -0.598688 -0.065289 39.272615 -0.919337 -0.219828 -0.037128 -0.000000 0.000000 0.000000 0.000000 0.000000 0.000000 0.845478 -0.651754 -0.209686 -2.241591 1.085665 0.484339 -2.959503 8.331845 -0.142434 -8.630380 -5.291814 0.675799 0.000000 0.000000 0.000000 0.000000 0.000000 0.000000 -0.000000 0.000000 0.000000 -0.000000 0.000000 0.000000 0.735634 0.264515 -0.318654 -0.734159 -0.268581 0.315235 0.000000 0.000000 0.000000 0.000000 0.000000 0.000000 -2.831919 -0.771384 39.393534 1.253965 -1.089551 -0.171796 -12.073543 -9.113976 -4.723018 0.000000 0.000000 0.000000 0.927893 -1.195749 39.426358 -10.969745 -11.572336 -0.825556 -3.434322 1.695260 -2.552446 0.000000 0.000000 0.000000
